<svg width="180" height="180" viewBox="0 0 180 180" xmlns="http://www.w3.org/2000/svg">
  <defs>
    <!-- Gradient for the main body -->
    <linearGradient id="bodyGradient" x1="0%" y1="0%" x2="100%" y2="100%">
      <stop offset="0%" style="stop-color:#2563eb;stop-opacity:1" />
      <stop offset="100%" style="stop-color:#1e40af;stop-opacity:1" />
    </linearGradient>
    
    <!-- Gradient for highlights -->
    <linearGradient id="highlightGradient" x1="0%" y1="0%" x2="100%" y2="100%">
      <stop offset="0%" style="stop-color:#60a5fa;stop-opacity:1" />
      <stop offset="100%" style="stop-color:#3b82f6;stop-opacity:1" />
    </linearGradient>
  </defs>
  
  <!-- Rounded background for Apple -->
  <rect x="0" y="0" width="180" height="180" rx="40" ry="40" fill="url(#bodyGradient)"/>
  
  <!-- Inner circle -->
  <circle cx="90" cy="90" r="75" fill="none" stroke="#1e40af" stroke-width="3" opacity="0.3"/>
  
  <!-- Rover body (larger for visibility) -->
  <rect x="60" y="105" width="60" height="30" rx="5" fill="url(#highlightGradient)"/>
  
  <!-- Rover wheels -->
  <circle cx="70" cy="145" r="10" fill="#1e40af"/>
  <circle cx="110" cy="145" r="10" fill="#1e40af"/>
  
  <!-- Wheel details -->
  <circle cx="70" cy="145" r="6" fill="#60a5fa"/>
  <circle cx="110" cy="145" r="6" fill="#60a5fa"/>
  
  <!-- Rover mast/camera -->
  <rect x="85" y="80" width="10" height="25" rx="2" fill="url(#highlightGradient)"/>
  <circle cx="90" cy="70" r="8" fill="#60a5fa"/>
  <circle cx="90" cy="70" r="5" fill="#1e40af"/>
  
  <!-- Solar panels -->
  <rect x="40" y="95" width="15" height="10" rx="2" fill="#60a5fa"/>
  <rect x="125" y="95" width="15" height="10" rx="2" fill="#60a5fa"/>
  
  <!-- Solar panel details -->
  <rect x="42" y="97" width="11" height="2" fill="#1e40af"/>
  <rect x="42" y="101" width="11" height="2" fill="#1e40af"/>
  <rect x="127" y="97" width="11" height="2" fill="#1e40af"/>
  <rect x="127" y="101" width="11" height="2" fill="#1e40af"/>
  
  <!-- Antenna -->
  <line x1="105" y1="70" x2="130" y2="40" stroke="#60a5fa" stroke-width="4"/>
  <circle cx="130" cy="40" r="6" fill="#60a5fa"/>
  <circle cx="130" cy="40" r="3" fill="#1e40af"/>
  
  <!-- Planet surface -->
  <path d="M 10 160 Q 90 150 170 160" stroke="#1e40af" stroke-width="6" fill="none"/>
  
  <!-- Additional details -->
  <rect x="80" y="110" width="20" height="5" rx="1" fill="#1e40af"/>
  <rect x="75" y="118" width="8" height="3" rx="1" fill="#60a5fa"/>
  <rect x="97" y="118" width="8" height="3" rx="1" fill="#60a5fa"/>
</svg>